<?xml version="1.0" encoding="UTF-8" standalone="no"?>
<svg
   xmlns:dc="http://purl.org/dc/elements/1.1/"
   xmlns:cc="http://creativecommons.org/ns#"
   xmlns:rdf="http://www.w3.org/1999/02/22-rdf-syntax-ns#"
   xmlns:svg="http://www.w3.org/2000/svg"
   xmlns="http://www.w3.org/2000/svg"
   xmlns:sodipodi="http://sodipodi.sourceforge.net/DTD/sodipodi-0.dtd"
   xmlns:inkscape="http://www.inkscape.org/namespaces/inkscape"
   version="1.0"
   width="1055.000000pt"
   height="1280.000000pt"
   viewBox="0 0 1055.000000 1280.000000"
   preserveAspectRatio="xMidYMid meet"
   id="svg907"
   sodipodi:docname="logo.svg"
   inkscape:version="1.0beta1 (32d4812, 2019-09-19)"
   inkscape:export-filename="/Users/thomas/Downloads/logo.png"
   inkscape:export-xdpi="55.989243"
   inkscape:export-ydpi="55.989243">
  <defs
     id="defs911" />
  <sodipodi:namedview
     pagecolor="#ffffff"
     bordercolor="#666666"
     inkscape:document-rotation="0"
     borderopacity="1"
     objecttolerance="10"
     gridtolerance="10"
     guidetolerance="10"
     inkscape:pageopacity="0"
     inkscape:pageshadow="2"
     inkscape:window-width="1280"
     inkscape:window-height="755"
     id="namedview909"
     showgrid="false"
     inkscape:zoom="0.21508212"
     inkscape:cx="364.92274"
     inkscape:cy="1023.3915"
     inkscape:window-x="0"
     inkscape:window-y="23"
     inkscape:window-maximized="0"
     inkscape:current-layer="layer3" />
  <metadata
     id="metadata901">
Created by potrace 1.15, written by Peter Selinger 2001-2017
<rdf:RDF>
  <cc:Work
     rdf:about="">
    <dc:format>image/svg+xml</dc:format>
    <dc:type
       rdf:resource="http://purl.org/dc/dcmitype/StillImage" />
  </cc:Work>
</rdf:RDF>
</metadata>
  <g
     inkscape:groupmode="layer"
     id="layer3"
     inkscape:label="Fond">
    <rect
       style="fill:#ffffff;stroke:none;stroke-width:9.46665;stroke-linecap:round;stroke-linejoin:round;paint-order:stroke markers fill;opacity:1"
       id="rect938"
       width="1316.8243"
       height="1316.8245"
       x="-125.21949"
       y="-24.236032"
       ry="3.3358433"
       inkscape:export-xdpi="55.989243"
       inkscape:export-ydpi="55.989243" />
  </g>
  <g
     inkscape:groupmode="layer"
     id="layer2"
     inkscape:label="Chronomètre"
     style="display:inline">
    <g
       id="g1053"
       stroke="none"
       fill="#000000"
       transform="matrix(0.0973977,0,0,-0.0973977,15.80109,1249.9213)"
       style="fill:#0086ad;fill-opacity:1"
       inkscape:export-xdpi="59.179718"
       inkscape:export-ydpi="59.179718">
      <path
         id="path1025"
         d="m 4495,12788 c -65,-23 -124,-77 -155,-143 -19,-38 -20,-71 -20,-673 0,-700 -3,-665 67,-742 68,-76 98,-84 331,-88 l 202,-4 v -258 -258 l -72,-7 c -1048,-96 -2036,-491 -2841,-1137 -53,-43 -101,-78 -105,-78 -4,0 -36,28 -70,63 l -62,62 91,90 c 114,114 131,140 131,209 0,41 -6,65 -25,98 -37,63 -604,624 -649,643 -49,20 -104,19 -153,-4 -49,-23 -799,-772 -814,-814 -16,-40 -13,-102 4,-145 20,-46 579,-611 643,-649 48,-29 131,-34 174,-12 12,6 68,56 123,110 l 101,99 59,-60 59,-59 -85,-88 C 947,8440 543,7769 290,7048 55,6384 -42,5594 20,4865 150,3357 911,1983 2125,1068 2924,465 3857,110 4880,18 c 187,-16 693,-16 880,0 914,82 1735,366 2480,857 1145,755 1955,1915 2260,3235 203,877 182,1781 -62,2658 -136,492 -382,1028 -673,1471 -345,525 -815,1017 -1325,1386 -577,418 -1223,712 -1915,873 -237,56 -544,104 -752,118 l -103,7 v 258 257 l 203,4 c 232,4 262,12 330,88 70,77 67,42 67,742 0,710 3,675 -74,751 -80,77 -19,72 -891,74 -527,1 -790,-2 -810,-9 z M 5687,9825 c 971,-83 1854,-452 2588,-1084 732,-630 1254,-1499 1459,-2431 81,-368 101,-562 101,-990 0,-380 -8,-489 -61,-790 C 9583,3431 8977,2431 8085,1740 7513,1297 6815,988 6110,866 c -311,-54 -400,-61 -790,-61 -390,0 -479,7 -790,61 -1118,194 -2143,825 -2831,1744 -486,648 -774,1374 -876,2210 -26,208 -25,793 0,1000 89,717 303,1326 670,1910 543,862 1382,1528 2342,1860 590,204 1243,287 1852,235 z"
         inkscape:connector-curvature="0"
         style="fill:#0086ad;fill-opacity:1" />
      <path
         id="path1027"
         d="m 5270,9360 v -240 h 50 50 v 240 240 h -50 -50 z"
         inkscape:connector-curvature="0"
         style="fill:#0086ad;fill-opacity:1" />
      <path
         id="path1029"
         d="m 3180,9028 c -19,-12 -36,-23 -38,-24 -2,-1 217,-387 234,-412 5,-7 84,39 84,49 0,14 -230,409 -238,409 -4,0 -23,-10 -42,-22 z"
         inkscape:connector-curvature="0"
         style="fill:#0086ad;fill-opacity:1" />
      <path
         id="path1031"
         d="m 7296,8844 c -65,-113 -117,-206 -115,-208 20,-15 81,-47 83,-45 11,13 237,411 234,413 -12,9 -76,46 -79,46 -3,0 -58,-93 -123,-206 z"
         inkscape:connector-curvature="0"
         style="fill:#0086ad;fill-opacity:1" />
      <path
         id="path1035"
         d="m 1621,7466 c -12,-18 -21,-37 -21,-42 0,-10 389,-237 404,-236 5,0 19,18 32,39 l 23,39 -203,117 c -112,64 -206,117 -209,117 -3,0 -15,-15 -26,-34 z"
         inkscape:connector-curvature="0"
         style="fill:#0086ad;fill-opacity:1" />
      <path
         id="path1037"
         d="m 8790,7386 c -107,-62 -195,-117 -197,-122 -2,-5 7,-26 20,-46 l 22,-37 135,78 c 74,42 167,96 207,119 l 71,42 -21,40 c -12,22 -26,40 -32,39 -5,0 -98,-51 -205,-113 z"
         inkscape:connector-curvature="0"
         style="fill:#0086ad;fill-opacity:1" />
      <path
         id="path1039"
         d="m 1049,5373 c -4,-15 0,-93 5,-93 3,0 110,0 236,0 h 230 v 48 47 h -235 c -129,0 -235,-1 -236,-2 z"
         inkscape:connector-curvature="0"
         style="fill:#0086ad;fill-opacity:1" />
      <path
         id="path1041"
         d="m 9120,5328 v -48 h 241 240 l -3,45 -3,46 -238,2 -237,2 z"
         inkscape:connector-curvature="0"
         style="fill:#0086ad;fill-opacity:1" />
      <path
         id="path1043"
         d="m 1805,3353 c -110,-63 -202,-116 -203,-118 -6,-6 8,-39 27,-64 l 18,-24 206,119 206,119 -21,35 c -12,19 -24,38 -27,42 -3,4 -96,-45 -206,-109 z"
         inkscape:connector-curvature="0"
         style="fill:#0086ad;fill-opacity:1" />
      <path
         id="path1045"
         d="m 8611,3429 c -13,-22 -19,-44 -15,-49 14,-13 393,-230 401,-230 5,0 18,18 30,40 l 21,40 -96,57 c -53,31 -146,85 -205,120 -60,34 -110,63 -111,63 -1,0 -13,-18 -25,-41 z"
         inkscape:connector-curvature="0"
         style="fill:#0086ad;fill-opacity:1" />
      <path
         id="path1047"
         d="m 3258,1854 -117,-205 41,-25 c 22,-14 44,-22 48,-17 12,13 230,395 230,403 0,6 -73,51 -81,50 -2,-1 -57,-93 -121,-206 z"
         inkscape:connector-curvature="0"
         style="fill:#0086ad;fill-opacity:1" />
      <path
         id="path1049"
         d="m 7220,2038 c -19,-12 -37,-23 -39,-24 -2,-2 224,-400 235,-413 2,-2 62,30 83,45 4,4 -232,414 -239,414 -3,0 -21,-10 -40,-22 z"
         inkscape:connector-curvature="0"
         style="fill:#0086ad;fill-opacity:1" />
      <path
         id="path1051"
         d="m 5270,1290 v -240 h 50 50 v 240 240 h -50 -50 z"
         inkscape:connector-curvature="0"
         style="fill:#0086ad;fill-opacity:1" />
    </g>
  </g>
  <g
     inkscape:groupmode="layer"
     id="layer1"
     inkscape:label="Runner"
     style="display:inline">
    <g
       id="g905"
       stroke="none"
       fill="#000000"
       transform="matrix(0.25713419,0,0,-0.25701066,-4621.8196,1843.2725)"
       style="fill:#ffbf00;fill-opacity:1">
      <path
         id="path903"
         d="m 19702.258,6264.6069 c -24.334,-10.5926 -29.487,-14.3144 -47.237,-33.4956 -12.311,-12.8829 -26.911,-33.2093 -37.218,-51.2454 -9.161,-16.3184 -20.04,-31.4916 -24.048,-34.0682 -19.181,-12.0241 -20.04,-14.0281 -20.04,-41.2254 0,-24.6207 -0.286,-25.4796 -10.02,-36.3585 -5.439,-6.012 -13.169,-18.0361 -16.891,-26.3384 -6.012,-14.3144 -6.585,-18.3224 -5.439,-52.6769 1.717,-48.6688 -4.295,-88.1765 -16.032,-105.3537 -14.029,-20.6127 -17.464,-29.7739 -17.464,-46.0923 0,-17.4635 2.004,-19.7538 22.044,-24.0481 10.306,-2.2903 10.879,-2.8629 10.02,-12.8829 -0.572,-8.8749 1.145,-13.1692 9.448,-23.1893 8.302,-10.02 10.02,-14.6006 10.02,-25.1933 0,-10.5926 1.145,-14.028 6.871,-17.7498 6.012,-3.7217 6.871,-6.012 5.439,-14.3143 -2.576,-15.4596 6.012,-36.0722 18.609,-45.2334 10.592,-7.4435 11.451,-7.4435 34.927,-4.8669 22.617,2.5766 25.766,3.7217 47.81,18.3224 13.169,8.5886 24.621,15.7458 26.052,15.7458 1.145,0 4.581,-4.2943 7.73,-9.1612 2.863,-5.1532 19.181,-28.3425 36.358,-51.2455 l 30.919,-42.0842 v -17.4635 c 0,-14.3144 -0.859,-18.0361 -4.867,-19.4675 -6.871,-2.5766 -51.818,-32.6368 -75.293,-50.1003 -10.02,-7.7298 -29.488,-27.4836 -42.943,-43.5157 l -24.621,-29.7739 -11.165,-38.6488 -10.879,-38.3625 -26.052,-22.0441 c -57.544,-48.0962 -67.85,-60.1203 -109.648,-131.1196 -21.186,-36.0722 -39.508,-65.2735 -40.939,-65.2735 -10.879,0 -47.81,48.9552 -82.737,109.6481 -18.895,32.923 -30.347,57.5437 -43.23,92.4708 -20.04,53.5357 -19.754,52.6768 -5.726,97.0514 19.468,60.6929 19.182,59.834 17.75,107.644 l -1.431,44.3745 -9.161,6.0121 c -7.73,5.1531 -9.448,8.3023 -10.879,20.0401 -1.145,7.4434 -3.149,18.6086 -4.867,24.6207 -3.149,10.3063 -3.722,10.5926 -15.746,10.5926 -12.31,0 -12.597,-0.2863 -14.314,-10.5926 -3.722,-22.3304 -4.867,-26.6247 -7.158,-26.6247 -1.145,0 -2.862,6.5846 -3.435,14.3143 -0.859,8.0161 -2.29,15.1732 -3.149,16.0321 -0.859,1.1452 -7.444,2.5766 -14.315,3.1492 -11.737,1.4314 -13.455,0.8588 -19.181,-7.1572 -6.012,-8.3023 -7.157,-8.5886 -12.596,-4.8669 -13.742,9.7338 -26.625,2.004 -39.794,-23.1893 -2.577,-4.8669 -8.589,-10.5926 -13.456,-12.5966 -10.592,-4.2943 -20.04,-16.891 -20.04,-26.3384 0,-6.0121 -1.145,-6.5847 -11.451,-5.7258 -14.029,1.4314 -15.46,-1.7177 -18.323,-35.7859 -1.718,-21.4716 -1.145,-24.907 5.153,-37.2174 3.722,-7.7297 10.02,-24.0481 14.028,-36.931 4.867,-16.0321 11.452,-29.2013 21.472,-43.2294 12.883,-17.7498 17.177,-27.4836 36.072,-84.1685 32.064,-97.0514 82.451,-225.0219 102.491,-261.6666 26.052,-47.2374 74.148,-118.523 90.467,-134.2688 l 14.314,-14.0281 19.754,2.2903 c 24.334,2.5766 57.83,15.7458 73.862,28.9151 6.871,5.4394 21.185,21.4715 32.064,35.7859 12.311,16.0321 28.915,33.4956 45.234,46.6648 14.314,11.4515 35.499,32.6368 47.237,46.9511 11.738,14.3144 22.044,26.0522 22.903,26.3385 0.859,0 18.895,-17.7499 40.367,-39.2214 l 38.935,-39.5077 -2.577,-47.5236 -2.577,-47.81 16.319,-42.3705 c 8.875,-23.4756 22.903,-59.2615 31.491,-79.5879 l 15.746,-36.9311 -8.875,-61.2655 c -4.867,-33.7819 -8.588,-62.4106 -8.016,-63.5557 0.573,-1.4315 8.875,-8.8749 18.609,-16.891 14.601,-12.3103 20.04,-19.4675 32.923,-44.0882 8.302,-16.3184 18.322,-39.794 22.044,-52.1043 3.722,-12.5967 9.734,-29.4876 13.169,-37.5037 l 6.585,-14.6006 -31.492,-52.9632 c -36.644,-61.2654 -35.499,-58.9751 -29.487,-60.4066 3.435,-0.5725 -9.734,-22.6167 -54.395,-90.1805 -56.112,-84.741 -60.406,-92.1845 -87.604,-153.1637 -16.032,-34.927 -44.374,-101.9183 -63.269,-148.2968 -39.794,-97.624 -66.705,-152.8774 -89.894,-184.9416 -8.875,-12.3103 -20.327,-30.919 -24.907,-41.2254 l -8.875,-18.6086 0.572,-50.9592 c 0.573,-50.6728 0.287,-50.9591 -7.157,-62.9832 -6.585,-10.3063 -7.73,-16.3184 -9.447,-42.0842 -2.004,-34.3545 -8.589,-55.826 -40.081,-130.2607 -25.193,-59.8341 -51.818,-141.1397 -64.128,-194.6754 -7.73,-34.0682 -14.314,-54.3946 -33.209,-98.7691 -19.468,-45.806 -72.145,-151.7323 -75.866,-151.7323 -0.573,0 -6.585,2.5766 -13.742,5.4395 l -12.883,5.4394 -16.032,-14.3143 -16.319,-14.3144 -24.334,16.0321 -24.334,16.3184 -20.613,-2.004 c -18.323,-1.4315 -25.193,-4.2943 -64.129,-24.3345 l -43.229,-22.6166 h -24.621 -24.62 l -32.351,21.4715 c -30.346,20.3264 -32.923,21.4715 -47.81,21.4715 -15.173,0 -16.604,-0.5725 -28.342,-12.5966 l -12.597,-12.8829 -2.576,-28.915 -2.577,-28.9151 12.024,-32.0641 c 9.734,-25.7659 17.75,-40.0803 41.798,-75.0073 l 29.774,-43.5157 37.79,-27.1973 c 32.637,-23.4755 41.798,-28.6287 67.85,-37.5036 21.185,-7.1572 37.217,-10.5926 54.394,-11.7378 l 24.335,-1.7177 11.451,-12.5966 c 18.895,-20.6127 84.169,-55.8261 130.261,-70.4267 36.931,-11.7378 39.221,-12.0241 59.548,-9.7338 l 21.471,2.5766 12.024,21.4715 c 8.589,14.887 12.597,26.3385 14.029,38.0763 3.435,26.0521 19.753,70.4266 34.068,92.4707 10.592,16.0321 14.028,24.3345 17.463,43.802 6.012,31.4916 6.299,30.3465 -6.298,37.7899 -5.726,3.4355 -10.879,6.5846 -11.165,6.8709 -0.573,0.2863 3.435,13.1692 8.875,28.915 14.6,43.2294 44.088,99.628 72.43,137.9905 13.742,18.3224 41.512,57.2575 62.125,86.4588 20.326,29.2013 44.374,62.6969 53.249,74.4347 52.391,69.2815 61.552,84.1684 76.725,121.6721 27.484,68.7089 30.633,86.4587 37.79,216.1469 2.577,44.9471 6.585,79.3016 12.883,107.9303 0.859,3.4354 18.322,21.7578 38.935,40.6528 26.338,24.0481 43.516,42.6568 57.83,62.4106 28.343,39.5077 61.552,75.0073 96.479,103.3497 38.076,30.6328 68.995,66.9913 128.829,150.8734 25.766,36.3585 47.238,66.4187 47.81,67.2776 2.577,2.8628 13.169,-13.1693 23.476,-34.3545 14.6,-30.919 53.249,-84.4548 91.612,-127.1116 137.99,-153.7363 298.884,-321.7869 318.637,-332.6658 16.605,-9.4475 59.548,-1.1452 100.487,19.4675 22.331,11.1652 44.947,18.6087 111.652,36.9311 96.479,26.6247 137.991,35.4996 178.071,38.0762 32.637,2.2903 56.112,7.7297 118.809,27.4836 24.335,7.7297 72.431,20.0401 106.785,27.1973 62.125,12.8829 62.984,12.8829 118.81,12.8829 58.975,-0.2863 208.989,-6.8709 211.566,-9.4475 0.859,-0.8588 12.024,-18.0361 25.193,-38.3625 l 23.762,-36.6448 39.508,-1.7177 c 22.33,-0.8588 59.834,-5.1532 85.6,-9.4475 50.386,-8.5886 53.535,-10.02 83.595,-37.5036 13.456,-12.3104 17.75,-18.3224 23.19,-33.7819 6.298,-18.0361 7.157,-18.6087 22.903,-26.0521 12.31,-5.4395 23.762,-7.7298 43.802,-9.1612 l 27.197,-2.004 10.593,24.0481 c 9.447,21.7578 10.592,26.3384 10.592,48.3825 0,13.4555 -1.431,35.2134 -3.149,48.6689 -3.149,22.0441 -5.439,28.0561 -26.052,65.8461 -17.75,33.2093 -29.201,49.5277 -56.112,81.5918 -31.778,38.0762 -34.355,40.3665 -50.101,45.806 -14.887,5.1532 -17.749,7.4435 -26.624,21.4715 -5.44,8.5887 -9.734,16.891 -9.734,18.6087 0,1.4315 -4.008,17.1773 -9.161,34.3545 l -9.162,31.4916 -42.943,45.5197 c -23.761,25.1933 -57.257,57.5437 -74.434,72.4307 -29.774,25.1932 -32.064,26.6247 -44.661,26.6247 -13.456,0 -13.456,0 -28.056,-20.899 -9.734,-13.4555 -28.056,-32.3505 -53.822,-54.9671 -22.903,-20.0402 -48.383,-45.806 -61.838,-62.1244 -12.311,-15.4595 -22.903,-28.0561 -23.19,-28.0561 -0.286,0 -28.915,4.008 -63.555,8.5886 -53.536,7.1572 -72.145,8.5886 -124.535,8.5886 -33.782,0 -82.737,2.004 -108.79,4.2943 -55.253,4.8669 -166.332,5.7257 -190.094,1.1452 -11.452,-2.0041 -34.068,-12.0241 -71.858,-31.4917 -30.347,-15.7458 -70.713,-34.6407 -89.608,-42.3705 l -34.355,-14.028 -19.181,11.4514 c -16.891,10.0201 -22.617,16.3184 -51.818,55.2535 -31.205,41.2254 -33.209,45.2334 -39.794,68.9952 -3.722,14.0281 -12.597,41.798 -19.468,61.5518 -7.157,20.0401 -15.745,46.3785 -19.181,58.6889 -9.734,35.7859 -32.35,70.713 -71.572,111.3658 -41.511,42.943 -60.12,71.2855 -67.277,103.3497 -6.585,28.915 -6.012,37.7899 5.153,81.3056 7.444,29.4875 9.161,41.2253 9.161,67.2775 0,28.915 -0.859,34.3544 -11.165,65.8461 -14.028,41.7979 -50.959,115.66 -99.055,197.5382 -19.468,33.2093 -43.23,78.4427 -52.964,100.4868 -17.463,39.794 -17.749,41.5117 -21.185,79.3016 -3.435,37.2174 -2.29,60.6929 2.863,57.83 1.145,-0.8588 1.432,-8.016 0.573,-15.7458 -1.432,-11.1652 -0.573,-15.4595 3.149,-19.7538 3.149,-3.4354 4.294,-7.7297 3.149,-12.3103 -4.294,-16.6047 6.585,-26.3385 29.201,-26.3385 8.016,0 9.161,-1.1451 10.879,-9.4475 2.863,-16.3183 11.738,-19.4675 50.1,-18.6086 28.916,0.5725 35.5,1.7177 54.968,9.4475 22.044,8.8749 32.064,17.4635 68.709,59.2614 6.584,7.1572 13.455,12.0241 17.177,12.0241 3.722,0.2863 15.173,7.7297 26.625,17.4635 11.165,9.7338 45.806,38.9351 77.297,65.5598 36.072,30.0602 82.165,72.717 124.535,115.6602 37.79,38.0762 73.576,71.5718 81.878,76.725 12.883,7.7297 15.746,11.1652 22.617,27.7698 10.02,24.6207 20.899,41.5117 36.931,57.5438 12.883,12.3103 13.169,13.1692 12.883,30.0601 -0.286,30.9191 -4.008,38.3625 -32.637,65.2735 -30.346,28.3425 -56.398,42.6568 -100.2,54.9672 -15.746,4.2943 -38.935,13.4555 -51.532,20.3264 -12.597,6.8709 -37.79,18.6087 -55.826,26.3384 -18.322,7.7298 -40.939,19.1813 -50.1,25.4796 -17.178,11.4515 -32.637,16.3184 -99.342,30.919 -20.04,4.2943 -24.621,6.5846 -50.1,26.3385 -15.46,11.7377 -33.21,24.0481 -39.508,27.1973 -6.298,3.1491 -26.338,13.7417 -44.375,23.7618 -29.487,16.0321 -35.499,18.3224 -57.543,20.899 -21.186,2.5766 -27.484,2.2903 -45.52,-2.2903 -11.738,-3.1492 -21.471,-5.1532 -22.044,-4.8669 -0.286,0.5726 2.577,11.4515 6.298,24.3344 9.161,32.0642 13.169,127.1116 6.299,153.1637 -2.291,8.8749 -3.722,16.3184 -3.15,16.3184 0.859,0 5.44,-4.8669 10.593,-10.5926 5.153,-6.0121 20.899,-23.1893 34.927,-38.3625 17.177,-18.6087 30.347,-35.786 39.508,-52.3906 13.169,-24.0481 13.455,-25.4796 13.455,-49.2414 0,-20.899 0.573,-24.3344 4.581,-23.4756 2.576,0.5726 7.157,7.4435 10.306,15.1732 4.867,11.7378 5.44,19.1813 4.581,41.5117 l -1.432,27.4836 -18.036,26.911 c -10.02,14.8869 -30.632,42.6568 -46.092,61.5518 -37.79,46.3785 -63.269,86.745 -83.31,132.8373 -15.459,35.7859 -18.036,39.7939 -42.37,66.1323 -22.903,24.907 -25.766,29.2013 -25.766,38.9351 0,6.012 -2.863,25.4796 -6.298,43.5157 -7.444,37.2173 -4.008,33.2093 -47.238,56.6848 l -20.612,11.1653 -26.053,-13.7418 c -35.785,-18.6087 -48.382,-18.6087 -77.583,-0.5726 -22.331,13.7418 -22.045,14.3144 9.447,10.3063 15.46,-2.004 19.468,-0.5725 19.468,6.8709 0,2.8629 -69.854,43.802 -97.338,56.9712 -27.484,12.8829 -36.359,15.7458 -52.963,17.1772 -18.895,1.1452 -21.758,0.5726 -47.524,-10.5926 z m 127.684,-67.2775 c -7.73,-0.5726 -27.483,-0.2863 -43.802,0.8589 -27.483,2.004 -29.201,2.2903 -25.193,6.8708 4.008,4.5806 6.871,4.2944 43.802,-1.1451 32.637,-4.8669 36.931,-6.012 25.193,-6.5846 z m 498.426,-829.088 77.012,-24.0482 59.834,-4.8668 c 33.209,-2.5766 60.979,-5.1532 62.41,-6.0121 5.154,-3.4354 0.859,-15.1732 -26.624,-71.5718 l -28.915,-59.5478 -34.641,-36.6447 c -18.895,-20.3264 -50.1,-51.5318 -68.995,-69.2816 l -34.641,-32.6368 -21.472,3.4355 c -17.177,2.5765 -28.342,7.1571 -55.253,21.4715 l -33.782,18.0361 -20.04,-3.7217 c -14.314,-2.5766 -20.899,-5.1532 -22.903,-9.1612 -5.44,-10.0201 -5.44,-3.1492 -0.286,12.5966 3.149,8.5886 8.302,35.4997 12.024,59.8342 4.294,29.7738 8.588,48.6688 12.883,57.2574 6.584,12.8829 6.584,13.1692 1.145,20.6127 -4.295,6.012 -4.867,8.8749 -2.577,14.3144 1.432,3.4354 6.585,24.6207 11.452,46.6648 8.588,40.3665 26.338,87.3176 32.923,87.3176 1.717,0 38.076,-10.8789 80.446,-24.0481 z m -117.664,-322.0733 c 0.859,-1.4314 -8.588,-10.0201 -20.612,-18.895 -20.327,-14.6006 -22.331,-15.4595 -23.19,-10.02 -1.717,10.02 1.432,13.7418 18.609,22.6167 17.75,9.1612 22.617,10.3063 25.193,6.2983 z"
         inkscape:connector-curvature="0"
         style="fill:#ffbf00;fill-opacity:1;stroke-width:0.286287" />
    </g>
  </g>
  <g
     inkscape:groupmode="layer"
     id="layer5"
     inkscape:label="Aiguilles"
     style="display:inline">
    <path
       inkscape:transform-center-y="150.02037"
       inkscape:transform-center-x="1.5713295"
       id="path950"
       d="m 544.40392,1074.8067 7.22938,-13.9672 0.83964,-42.8602 c 0.45698,-23.57304 1.24613,-57.76439 1.6346,-75.98012 1.43145,-59.51862 2.27951,-100.82043 2.82021,-126.92631 l 0.54324,-25.61892 5.2457,-2.56074 c 16.90169,-8.46771 29.45158,-29.18417 29.44155,-49.05353 0.10943,-15.77925 -5.02568,-28.80297 -15.40916,-39.75292 -11.55864,-12.11241 -25.22622,-17.97986 -41.5888,-17.8914 -16.36258,0.0885 -29.96587,6.10336 -41.39285,18.34003 -14.23513,15.27122 -18.89008,37.0164 -12.06394,56.55671 1.58261,4.4718 4.53816,10.68937 6.59979,13.69759 4.81083,7.08412 13.71768,15.12011 20.65121,18.49159 l 5.37105,2.60074 0.0301,5.55159 c 0.016,3.01928 1.90543,64.17572 4.14292,135.75197 l 4.11295,130.20042 6.89198,13.696 c 3.83895,7.479 7.08623,13.5976 7.28106,13.5966 0.29222,0 3.66729,-6.2534 7.61947,-13.8719 z M 526.98277,752.99672 c -6.93246,-3.17669 -11.17265,-12.7963 -9.16846,-20.40424 2.10061,-7.8033 9.76172,-13.98086 17.55344,-14.02299 4.67505,-0.0253 10.72989,2.96136 13.96398,6.64505 3.03929,3.68473 5.02148,10.00496 4.26393,14.00242 -2.55913,13.0653 -14.60258,19.36396 -26.61289,13.77976 z"
       inkscape:connector-curvature="0"
       style="display:inline;fill:#0086ad;fill-opacity:1;stroke-width:0.097398" />
    <path
       sodipodi:nodetypes="cccccccsccccccccccccsccc"
       style="display:inline;fill:#0086ad;fill-opacity:1;stroke-width:0.091728"
       inkscape:connector-curvature="0"
       d="m 752.17615,724.42104 -12.53539,-6.96581 c -53.58722,-0.0422 -54.30517,-2.51423 -134.07259,-2.68861 l -22.72922,-0.0624 -2.37948,-5.1965 c -7.85916,-16.73921 -26.48985,-28.89757 -44.10911,-28.51469 -13.99472,0.18657 -25.43732,5.56509 -34.93208,16.15181 -10.50134,11.78341 -15.42112,25.55817 -15.00354,41.91563 0.41757,16.35734 6.03332,29.8449 17.12118,41.03975 13.837,13.94552 33.21638,18.19139 50.40254,11 3.93267,-1.66616 9.38491,-4.73774 12.00974,-6.85538 6.18227,-4.94282 13.1237,-13.99841 15.96967,-20.99381 l 2.19491,-5.41867 4.92233,-0.13422 c 59.93326,-4.02055 95.05067,-7.9939 151.69171,-11.23738 l 12.00236,-7.14749 c 6.55247,-3.97854 11.91095,-7.33996 11.90603,-7.5347 -0.01,-0.29195 -5.62131,-3.54913 -12.45906,-7.3575 z m -201.03427,21.44893 c -2.67323,6.99062 -11.11567,11.41041 -17.90367,9.5494 -6.96331,-1.95371 -12.60012,-9.49731 -12.79893,-17.28649 -0.11885,-4.67358 2.40364,-10.78317 5.60319,-14.08577 3.20449,-3.10775 8.76792,-5.20809 12.32845,-4.52569 11.63885,2.31341 17.47396,14.23607 12.77096,26.34855 z"
       id="path952"
       inkscape:transform-center-x="-87.982966"
       inkscape:transform-center-y="3.5903524" />
  </g>
</svg>
